<?xml version="1.0" encoding="UTF-8" standalone="no"?>
<svg
   xmlns:dc="http://purl.org/dc/elements/1.1/"
   xmlns:cc="http://creativecommons.org/ns#"
   xmlns:rdf="http://www.w3.org/1999/02/22-rdf-syntax-ns#"
   xmlns:svg="http://www.w3.org/2000/svg"
   xmlns="http://www.w3.org/2000/svg"
   xmlns:sodipodi="http://sodipodi.sourceforge.net/DTD/sodipodi-0.dtd"
   xmlns:inkscape="http://www.inkscape.org/namespaces/inkscape"
   width="612.36426"
   height="164.44647"
   viewBox="0 0 162.02136 43.509794"
   version="1.1"
   id="svg8"
   inkscape:version="1.0.2 (e86c8708, 2021-01-15)"
   sodipodi:docname="logo.svg">
  <title
     id="title204">Xeda Logo</title>
  <defs
     id="defs2">
    <rect
       x="123.63702"
       y="75.245461"
       width="96.646797"
       height="36.259586"
       id="rect433" />
  </defs>
  <sodipodi:namedview
     id="base"
     pagecolor="#ffffff"
     bordercolor="#666666"
     borderopacity="1.0"
     inkscape:pageopacity="0.0"
     inkscape:pageshadow="2"
     inkscape:zoom="2.6752384"
     inkscape:cx="223.69441"
     inkscape:cy="72.263464"
     inkscape:document-units="px"
     inkscape:current-layer="layer1"
     inkscape:document-rotation="0"
     showgrid="false"
     inkscape:window-width="2560"
     inkscape:window-height="1387"
     inkscape:window-x="1440"
     inkscape:window-y="25"
     inkscape:window-maximized="0"
     units="px"
     inkscape:pagecheckerboard="true"
     showborder="true"
     inkscape:showpageshadow="false" />
  <metadata
     id="metadata5">
    <rdf:RDF>
      <cc:Work
         rdf:about="">
        <dc:format>image/svg+xml</dc:format>
        <dc:type
           rdf:resource="http://purl.org/dc/dcmitype/StillImage" />
        <dc:title>Xeda Logo</dc:title>
        <cc:license
           rdf:resource="http://creativecommons.org/licenses/by/4.0/" />
        <dc:creator>
          <cc:Agent>
            <dc:title>Kamyar Mohajerani</dc:title>
          </cc:Agent>
        </dc:creator>
      </cc:Work>
      <cc:License
         rdf:about="http://creativecommons.org/licenses/by/4.0/">
        <cc:permits
           rdf:resource="http://creativecommons.org/ns#Reproduction" />
        <cc:permits
           rdf:resource="http://creativecommons.org/ns#Distribution" />
        <cc:requires
           rdf:resource="http://creativecommons.org/ns#Notice" />
        <cc:requires
           rdf:resource="http://creativecommons.org/ns#Attribution" />
        <cc:permits
           rdf:resource="http://creativecommons.org/ns#DerivativeWorks" />
      </cc:License>
    </rdf:RDF>
  </metadata>
  <g
     inkscape:label="Layer 1"
     inkscape:groupmode="layer"
     id="layer1"
     transform="translate(-41.745084,-68.203431)">
    <rect
       style="fill:#c8beb7;stroke:none;stroke-width:0.245409;stroke-opacity:0.996078"
       id="rect53"
       width="15.902535"
       height="15.902535"
       x="100.51043"
       y="10.742996"
       ry="0"
       transform="rotate(45)" />
    <g
       style="display:block;stroke:#374148;stroke-opacity:0.996078"
       id="g273"
       transform="matrix(0.05922355,0.05922355,-0.05922355,0.05922355,63.499988,62.952401)">
      <path
         d="m 129.64,321.721 c 0,33.437 27.203,60.64 60.64,60.64 h 131.441 c 33.437,0 60.64,-27.203 60.64,-60.64 V 190.279 c 0,-33.437 -27.203,-60.64 -60.64,-60.64 H 190.279 c -33.437,0 -60.64,27.203 -60.64,60.64 v 131.442 z m 36,-131.442 c 0,-13.586 11.053,-24.64 24.64,-24.64 h 131.441 c 13.586,0 24.64,11.054 24.64,24.64 V 321.72 c 0,13.586 -11.053,24.64 -24.64,24.64 H 190.279 c -13.586,0 -24.64,-11.054 -24.64,-24.64 V 190.279 Z m 41,133.081 h 98.72 c 9.941,0 18,-8.059 18,-18 v -98.72 c 0,-9.941 -8.059,-18 -18,-18 h -98.72 c -9.941,0 -18,8.059 -18,18 v 98.721 c 0,9.941 8.059,17.999 18,17.999 z m 18,-98.72 h 62.72 v 62.721 h -62.72 z"
         fill="#000000"
         class="fill c1"
         id="path262"
         sodipodi:nodetypes="cssssssscccsssssssccsssssssssccccc"
         style="stroke:#374148;stroke-opacity:0.996078"
         transform="translate(-28,-28)" />
      <path
         style="fill:#ff6600;stroke:#374148;stroke-width:1.04476;stroke-opacity:0.996078"
         d="m 227.03084,260.3534 -31.39719,-0.0127 0.0128,-31.39719 c 0.007,-17.26844 0.30855,-31.69298 0.67009,-32.05452 0.58598,-0.58598 62.29848,-0.63351 62.88356,-0.0485 0.59086,0.59085 0.48815,62.26546 -0.10468,62.85828 -0.36704,0.36704 -14.79608,0.66161 -32.06452,0.6546 z"
         id="path182" />
    </g>
    <rect
       style="fill:#000000;stroke:#374148;stroke-width:0.0768662;stroke-opacity:0.996078"
       id="rect321"
       width="13.229167"
       height="2.6458333"
       x="83.640579"
       y="12.094296"
       ry="1.3229166"
       transform="rotate(45)" />
    <rect
       style="fill:#000000;stroke:#374148;stroke-width:0.0768662;stroke-opacity:0.996078"
       id="rect359"
       width="13.229167"
       height="2.6458333"
       x="83.640579"
       y="22.677624"
       ry="1.3229166"
       transform="rotate(45)" />
    <rect
       style="fill:#000000;stroke:#374148;stroke-width:0.0486145;stroke-opacity:0.996078"
       id="rect375"
       width="5.2916665"
       height="2.6458333"
       x="91.578087"
       y="18.973454"
       ry="1.3229166"
       transform="rotate(45)" />
    <rect
       style="fill:#000000;stroke:#374148;stroke-width:0.0486145;stroke-opacity:0.996078"
       id="rect381"
       width="5.2916665"
       height="2.6458333"
       x="91.578087"
       y="15.798456"
       ry="1.3229166"
       transform="rotate(45)" />
    <rect
       style="fill:#000000;stroke:#374148;stroke-width:0.0768662;stroke-opacity:0.996078"
       id="rect385"
       width="13.229167"
       height="2.6458333"
       x="-133.38222"
       y="-25.32346"
       ry="1.3229166"
       transform="rotate(-135)" />
    <rect
       style="fill:#000000;stroke:#374148;stroke-width:0.0768662;stroke-opacity:0.996078"
       id="rect387"
       width="13.229167"
       height="2.6458333"
       x="-133.38222"
       y="-14.740131"
       ry="1.3229166"
       transform="rotate(-135)" />
    <rect
       style="fill:#000000;stroke:#374148;stroke-width:0.0486145;stroke-opacity:0.996078"
       id="rect389"
       width="5.2916665"
       height="2.6458333"
       x="-125.44472"
       y="-18.444302"
       ry="1.3229166"
       transform="rotate(-135)" />
    <rect
       style="fill:#000000;stroke:#374148;stroke-width:0.0486145;stroke-opacity:0.996078"
       id="rect391"
       width="5.2916665"
       height="2.6458333"
       x="-125.44472"
       y="-21.619297"
       ry="1.3229166"
       transform="rotate(-135)" />
    <rect
       style="fill:#000000;stroke:#374148;stroke-width:0.0768662;stroke-opacity:0.996078"
       id="rect393"
       width="13.229167"
       height="2.6458333"
       x="-6.161953"
       y="-115.12601"
       ry="1.3229166"
       transform="rotate(135)" />
    <rect
       style="fill:#000000;stroke:#374148;stroke-width:0.0768662;stroke-opacity:0.996078"
       id="rect395"
       width="13.229167"
       height="2.6458333"
       x="-6.161953"
       y="-104.54268"
       ry="1.3229166"
       transform="rotate(135)" />
    <rect
       style="fill:#000000;stroke:#374148;stroke-width:0.0486145;stroke-opacity:0.996078"
       id="rect397"
       width="5.2916665"
       height="2.6458333"
       x="1.7755468"
       y="-108.24683"
       ry="1.3229166"
       transform="rotate(135)" />
    <rect
       style="fill:#000000;stroke:#374148;stroke-width:0.0486145;stroke-opacity:0.996078"
       id="rect399"
       width="5.2916665"
       height="2.6458333"
       x="1.7755468"
       y="-111.42184"
       ry="1.3229166"
       transform="rotate(135)" />
    <rect
       style="fill:#000000;stroke:#374148;stroke-width:0.0768662;stroke-opacity:0.996078"
       id="rect401"
       width="13.229167"
       height="2.6458333"
       x="-43.579685"
       y="101.89684"
       ry="1.3229166"
       transform="rotate(-45)" />
    <rect
       style="fill:#000000;stroke:#374148;stroke-width:0.0768662;stroke-opacity:0.996078"
       id="rect403"
       width="13.229167"
       height="2.6458333"
       x="-43.579685"
       y="112.48018"
       ry="1.3229166"
       transform="rotate(-45)" />
    <rect
       style="fill:#000000;stroke:#374148;stroke-width:0.0486145;stroke-opacity:0.996078"
       id="rect405"
       width="5.2916665"
       height="2.6458333"
       x="-35.642193"
       y="108.77602"
       ry="1.3229166"
       transform="rotate(-45)" />
    <rect
       style="fill:#000000;stroke:#374148;stroke-width:0.0486145;stroke-opacity:0.996078"
       id="rect407"
       width="5.2916665"
       height="2.6458333"
       x="-35.642193"
       y="105.60101"
       ry="1.3229166"
       transform="rotate(-45)" />
    <circle
       style="fill:#ffffff;stroke:#374148;stroke-width:0.162174;stroke-opacity:0.996078"
       id="path427"
       cx="51.30196"
       cy="-80.042564"
       transform="scale(1,-1)"
       r="0.79374999" />
    <circle
       style="fill:#ffffff;stroke:#374148;stroke-width:0.162174;stroke-opacity:0.996078"
       id="circle429"
       cx="53.554939"
       cy="-77.789589"
       transform="scale(1,-1)"
       r="0.79374999" />
    <circle
       style="fill:#ffffff;stroke:#374148;stroke-width:0.162174;stroke-opacity:0.996078"
       id="circle136"
       cx="43.107918"
       cy="-77.003883"
       transform="scale(1,-1)"
       r="0.79374999" />
    <circle
       style="fill:#ffffff;stroke:#374148;stroke-width:0.162174;stroke-opacity:0.996078"
       id="circle138"
       cx="50.516254"
       cy="-69.459244"
       transform="scale(1,-1)"
       r="0.79374999" />
    <g
       id="g1972"
       style="stroke:#c8beb7;stroke-opacity:1">
      <g
         aria-label="XEDA"
         transform="matrix(1.1740328,0,0,1.1756293,-48.073193,-17.352988)"
         id="text431"
         style="font-style:normal;font-weight:normal;font-size:10.5833px;line-height:1.25;font-family:sans-serif;white-space:pre;shape-inside:url(#rect433);fill:#000000;fill-opacity:1;stroke:#c8beb7;stroke-opacity:1">
        <path
           d="m 135.02139,88.296454 6.18671,-7.23195 h 5.01434 l -8.71507,10.155804 8.65857,10.099302 h -4.98609 l -6.15846,-7.175447 -6.13021,7.175447 h -5.00021 l 8.64444,-10.099302 -8.67269,-10.155804 h 4.97196 z"
           style="font-style:normal;font-variant:normal;font-weight:normal;font-stretch:normal;font-size:28.9278px;font-family:Audiowide;-inkscape-font-specification:'Audiowide, Normal';font-variant-ligatures:normal;font-variant-caps:normal;font-variant-numeric:normal;font-variant-east-asian:normal;stroke:#c8beb7;stroke-opacity:1"
           id="path866" />
        <path
           d="m 165.07918,93.042421 h -11.59654 v -3.700725 h 11.59654 z m 1.65262,8.277189 h -13.24916 q -0.76275,0 -1.66674,-0.26837 -0.90399,-0.26837 -1.68086,-0.87574 -0.76275,-0.621499 -1.28537,-1.596118 -0.5085,-0.988743 -0.5085,-2.415358 V 82.914866 q 0,-0.381372 0.14125,-0.72037 0.14125,-0.338998 0.38137,-0.593246 0.25425,-0.254248 0.59325,-0.395497 0.339,-0.141249 0.7345,-0.141249 h 16.54026 v 3.672474 h -14.71815 v 11.427046 q 0,0.72037 0.38137,1.101742 0.38137,0.381373 1.11587,0.381373 h 13.22091 z"
           style="font-style:normal;font-variant:normal;font-weight:normal;font-stretch:normal;font-size:28.9278px;font-family:Audiowide;-inkscape-font-specification:'Audiowide, Normal';font-variant-ligatures:normal;font-variant-caps:normal;font-variant-numeric:normal;font-variant-east-asian:normal;stroke:#c8beb7;stroke-opacity:1"
           id="path868" />
        <path
           d="m 190.504,92.844672 q 0,1.850362 -0.64974,3.404101 -0.63562,1.55374 -1.76561,2.683732 -1.13,1.115865 -2.68374,1.751485 -1.55373,0.63562 -3.37585,0.63562 h -9.91568 q -0.3955,0 -0.73449,-0.14125 -0.339,-0.14124 -0.59325,-0.38137 -0.24012,-0.25425 -0.38137,-0.59324 -0.14125,-0.339002 -0.14125,-0.734499 V 82.914866 q 0,-0.381372 0.14125,-0.72037 0.14125,-0.338998 0.38137,-0.593246 0.25425,-0.254248 0.59325,-0.395497 0.33899,-0.141249 0.73449,-0.141249 h 9.91568 q 1.82212,0 3.37585,0.63562 1.55374,0.635621 2.68374,1.765613 1.12999,1.115867 1.76561,2.683732 0.64974,1.553739 0.64974,3.389976 z m -3.67247,-3.305227 q 0,-1.073493 -0.35312,-1.963361 -0.339,-0.889869 -0.97462,-1.511365 -0.63562,-0.63562 -1.52549,-0.974618 -0.87574,-0.353123 -1.94924,-0.353123 h -8.09357 v 12.910161 h 8.09357 q 1.0735,0 1.94924,-0.338998 0.88987,-0.353122 1.52549,-0.974618 0.63562,-0.635621 0.97462,-1.511365 0.35312,-0.889868 0.35312,-1.977486 z"
           style="font-style:normal;font-variant:normal;font-weight:normal;font-stretch:normal;font-size:28.9278px;font-family:Audiowide;-inkscape-font-specification:'Audiowide, Normal';font-variant-ligatures:normal;font-variant-caps:normal;font-variant-numeric:normal;font-variant-east-asian:normal;stroke:#c8beb7;stroke-opacity:1"
           id="path870" />
        <path
           d="m 214.00784,101.31961 h -3.67247 v -4.971962 h -12.91016 v 4.971962 h -3.67248 V 91.192059 q 0,-2.21761 0.76275,-4.082097 0.76274,-1.864487 2.11873,-3.206353 1.35599,-1.341866 3.20635,-2.090485 1.85037,-0.74862 4.03973,-0.74862 h 8.27719 q 0.38137,0 0.72037,0.141249 0.339,0.141249 0.59324,0.395497 0.25425,0.254248 0.3955,0.593246 0.14125,0.338998 0.14125,0.72037 z m -16.58263,-8.644437 h 12.91016 v -7.938195 h -6.45508 q -0.1695,0 -0.72037,0.0565 -0.53675,0.04238 -1.25712,0.240123 -0.70625,0.197749 -1.49724,0.607371 -0.79099,0.409622 -1.45486,1.129992 -0.66388,0.72037 -1.10175,1.807988 -0.42374,1.073492 -0.42374,2.613107 z"
           style="font-style:normal;font-variant:normal;font-weight:normal;font-stretch:normal;font-size:28.9278px;font-family:Audiowide;-inkscape-font-specification:'Audiowide, Normal';font-variant-ligatures:normal;font-variant-caps:normal;font-variant-numeric:normal;font-variant-east-asian:normal;stroke:#c8beb7;stroke-opacity:1"
           id="path872" />
      </g>
      <path
         style="display:block;fill:#c8beb7;stroke:#c8beb7;stroke-width:0.451711;stroke-opacity:1"
         d="m 536.72488,82.903374 c 0.01,-6.627863 0.82625,-10.607394 3.13895,-15.299789 2.38292,-4.834872 6.35771,-8.644745 11.51678,-11.038942 6.29113,-2.919563 8.09436,-3.13542 26.19253,-3.13542 h 16.0595 V 70.820101 88.21098 h -28.4578 -28.4578 z"
         id="path1959"
         transform="matrix(0.26458332,0,0,0.26458332,41.783199,68.241546)" />
      <path
         style="display:block;fill:#ff6600;stroke:#c8beb7;stroke-width:0.451711;stroke-opacity:1"
         d="M 432.37177,81.887024 V 53.429223 h 19.7933 c 21.3599,0 21.93158,0.05389 26.81769,2.528116 2.8419,1.43908 6.33835,5.017856 7.77874,7.961911 2.18402,4.463988 2.62315,8.034864 2.40403,19.548763 -0.17657,9.277686 -0.30465,10.687756 -1.19706,13.178112 -2.71978,7.589855 -8.56866,12.166965 -16.9378,13.254885 -1.75977,0.22876 -11.17793,0.4222 -20.92924,0.42987 l -17.72966,0.014 z"
         id="path1961"
         transform="matrix(0.26458332,0,0,0.26458332,41.783199,68.241546)" />
      <path
         id="circle134"
         style="fill:#ffffff;stroke:#c8beb7;stroke-width:0.162174;stroke-opacity:1"
         transform="scale(1,-1)"
         d="m 102.37278,-79.35405 a 0.79374999,0.79374999 0 0 1 -0.79375,0.79375 0.79374999,0.79374999 0 0 1 -0.79375,-0.79375 0.79374999,0.79374999 0 0 1 0.79375,-0.79375 0.79374999,0.79374999 0 0 1 0.79375,0.79375 z" />
      <path
         id="circle160"
         style="fill:#ffffff;stroke:#c8beb7;stroke-width:0.163451;stroke-opacity:1"
         transform="scale(1,-1)"
         d="m 120.11236,-99.997795 a 0.80000001,0.80000001 0 0 1 -0.8,0.8 0.80000001,0.80000001 0 0 1 -0.8,-0.8 0.80000001,0.80000001 0 0 1 0.8,-0.800005 0.80000001,0.80000001 0 0 1 0.8,0.800005 z" />
    </g>
  </g>
</svg>
